<svg xmlns="http://www.w3.org/2000/svg" style="display:none">

  <!-- UI navigation -->
  <symbol id="icon-home" viewBox="0 0 24 24">
    <path d="M3 12l2-2m0 0l7-7 7 7m-7-7v14m-5-5v4a1 1 0 001 1h3m4 0h3a1 1 0 001-1v-4m-9 0h9" stroke="currentColor" stroke-width="2" stroke-linecap="round" stroke-linejoin="round" fill="none"/>
  </symbol>

  <symbol id="icon-back" viewBox="0 0 24 24">
    <path d="M15 18l-6-6 6-6" stroke="currentColor" stroke-width="2" stroke-linecap="round" stroke-linejoin="round" fill="none"/>
  </symbol>

  <symbol id="icon-dash" viewBox="0 0 24 24">
    <rect x="3" y="3" width="7" height="7" rx="1" stroke="currentColor" stroke-width="2" fill="none"/>
    <rect x="14" y="3" width="7" height="7" rx="1" stroke="currentColor" stroke-width="2" fill="none"/>
    <rect x="3" y="14" width="7" height="7" rx="1" stroke="currentColor" stroke-width="2" fill="none"/>
    <rect x="14" y="14" width="7" height="7" rx="1" stroke="currentColor" stroke-width="2" fill="none"/>
  </symbol>

  <symbol id="icon-floors" viewBox="0 0 24 24">
    <path d="M3 9l9-7 9 7v11a2 2 0 01-2 2H5a2 2 0 01-2-2z" stroke="currentColor" stroke-width="2" stroke-linecap="round" stroke-linejoin="round" fill="none"/>
    <polyline points="9 22 9 12 15 12 15 22" stroke="currentColor" stroke-width="2" stroke-linecap="round" stroke-linejoin="round" fill="none"/>
  </symbol>

  <symbol id="icon-lock" viewBox="0 0 24 24">
    <rect x="5" y="11" width="14" height="11" rx="2" stroke="currentColor" stroke-width="2" fill="none"/>
    <path d="M7 11V7a5 5 0 0110 0v4" stroke="currentColor" stroke-width="2" stroke-linecap="round" fill="none"/>
    <circle cx="12" cy="16" r="1.5" fill="currentColor"/>
  </symbol>

  <symbol id="icon-info" viewBox="0 0 24 24">
    <circle cx="12" cy="12" r="9" stroke="currentColor" stroke-width="2" fill="none"/>
    <line x1="12" y1="8" x2="12" y2="8.5" stroke="currentColor" stroke-width="2" stroke-linecap="round"/>
    <line x1="12" y1="12" x2="12" y2="17" stroke="currentColor" stroke-width="2" stroke-linecap="round"/>
  </symbol>

  <!-- Room icons -->
  <symbol id="icon-room-living" viewBox="0 0 24 24">
    <path d="M3 13V8a1 1 0 011-1h16a1 1 0 011 1v5" stroke="currentColor" stroke-width="2" stroke-linecap="round" fill="none"/>
    <path d="M3 13a2 2 0 012 2v3h14v-3a2 2 0 012-2H3z" stroke="currentColor" stroke-width="2" stroke-linejoin="round" fill="none"/>
  </symbol>

  <symbol id="icon-room-kitchen" viewBox="0 0 24 24">
    <path d="M18 8h1a4 4 0 010 8h-1" stroke="currentColor" stroke-width="2" stroke-linecap="round" stroke-linejoin="round" fill="none"/>
    <path d="M2 8h16v9a4 4 0 01-4 4H6a4 4 0 01-4-4V8z" stroke="currentColor" stroke-width="2" stroke-linecap="round" stroke-linejoin="round" fill="none"/>
    <line x1="6" y1="1" x2="6" y2="4" stroke="currentColor" stroke-width="2" stroke-linecap="round"/>
    <line x1="10" y1="1" x2="10" y2="4" stroke="currentColor" stroke-width="2" stroke-linecap="round"/>
    <line x1="14" y1="1" x2="14" y2="4" stroke="currentColor" stroke-width="2" stroke-linecap="round"/>
  </symbol>

  <symbol id="icon-room-bath" viewBox="0 0 24 24">
    <path d="M9 6V3.5A2.5 2.5 0 0111.5 1h.5a2.5 2.5 0 012.5 2.5V6" stroke="currentColor" stroke-width="2" stroke-linecap="round" fill="none"/>
    <rect x="2" y="6" width="20" height="4" rx="1" stroke="currentColor" stroke-width="2" fill="none"/>
    <path d="M4 10v6a6 6 0 006 6h4a6 6 0 006-6v-6" stroke="currentColor" stroke-width="2" stroke-linecap="round" fill="none"/>
    <line x1="4" y1="22" x2="4" y2="20" stroke="currentColor" stroke-width="2" stroke-linecap="round"/>
    <line x1="20" y1="22" x2="20" y2="20" stroke="currentColor" stroke-width="2" stroke-linecap="round"/>
  </symbol>

  <symbol id="icon-room-bed" viewBox="0 0 24 24">
    <path d="M2 20V10H22V20" stroke="currentColor" stroke-width="2" stroke-linecap="round" stroke-linejoin="round" fill="none"/>
    <path d="M2 10V4" stroke="currentColor" stroke-width="2" stroke-linecap="round"/>
    <path d="M2 14H22" stroke="currentColor" stroke-width="2"/>
    <path d="M7 14V10H17V14" stroke="currentColor" stroke-width="2" stroke-linejoin="round" fill="none"/>
  </symbol>

  <symbol id="icon-room-child" viewBox="0 0 24 24">
    <circle cx="12" cy="5" r="3" stroke="currentColor" stroke-width="2" fill="none"/>
    <path d="M9 12l-2 8h10l-2-8" stroke="currentColor" stroke-width="2" stroke-linecap="round" stroke-linejoin="round" fill="none"/>
    <path d="M9 12h6" stroke="currentColor" stroke-width="2" stroke-linecap="round"/>
  </symbol>

  <symbol id="icon-room-hall" viewBox="0 0 24 24">
    <path d="M3 9l9-7 9 7v11a2 2 0 01-2 2H5a2 2 0 01-2-2z" stroke="currentColor" stroke-width="2" stroke-linecap="round" fill="none"/>
    <rect x="9" y="14" width="6" height="8" rx="0.5" stroke="currentColor" stroke-width="2" fill="none"/>
  </symbol>

  <symbol id="icon-room-office" viewBox="0 0 24 24">
    <rect x="2" y="3" width="20" height="14" rx="2" stroke="currentColor" stroke-width="2" fill="none"/>
    <line x1="8" y1="21" x2="16" y2="21" stroke="currentColor" stroke-width="2" stroke-linecap="round"/>
    <line x1="12" y1="17" x2="12" y2="21" stroke="currentColor" stroke-width="2" stroke-linecap="round"/>
  </symbol>

  <symbol id="icon-room-garden" viewBox="0 0 24 24">
    <path d="M12 22V12" stroke="currentColor" stroke-width="2" stroke-linecap="round"/>
    <path d="M12 12C12 8 8 5 5 7c3 0 5 2 7 5z" fill="currentColor"/>
    <path d="M12 12C12 8 16 5 19 7c-3 0-5 2-7 5z" fill="currentColor"/>
    <path d="M12 15C12 11 9 8 7 10c2.5 0 4 1.5 5 5z" fill="currentColor" opacity="0.7"/>
  </symbol>

  <symbol id="icon-room-garage" viewBox="0 0 24 24">
    <path d="M3 10l9-7 9 7v11a1 1 0 01-1 1H4a1 1 0 01-1-1V10z" stroke="currentColor" stroke-width="2" stroke-linecap="round" fill="none"/>
    <line x1="3" y1="14" x2="21" y2="14" stroke="currentColor" stroke-width="2"/>
    <line x1="3" y1="17" x2="21" y2="17" stroke="currentColor" stroke-width="2"/>
  </symbol>

  <symbol id="icon-room-cellar" viewBox="0 0 24 24">
    <path d="M5 3H19L21 21H3L5 3Z" stroke="currentColor" stroke-width="2" stroke-linecap="round" stroke-linejoin="round" fill="none"/>
    <line x1="3" y1="9" x2="21" y2="9" stroke="currentColor" stroke-width="2"/>
    <line x1="3" y1="15" x2="21" y2="15" stroke="currentColor" stroke-width="2"/>
  </symbol>

  <symbol id="icon-room-dining" viewBox="0 0 24 24">
    <circle cx="12" cy="12" r="4" stroke="currentColor" stroke-width="2" fill="none"/>
    <path d="M12 2v4M12 18v4M2 12h4M18 12h4" stroke="currentColor" stroke-width="2" stroke-linecap="round"/>
  </symbol>

  <symbol id="icon-room-terrace" viewBox="0 0 24 24">
    <path d="M3 21V9l9-7 9 7v12H3z" stroke="currentColor" stroke-width="2" stroke-linecap="round" fill="none"/>
    <path d="M3 21h18" stroke="currentColor" stroke-width="2" stroke-linecap="round"/>
    <path d="M8 21v-6h8v6" stroke="currentColor" stroke-width="2" stroke-linecap="round" fill="none"/>
  </symbol>

  <!-- Widget function icons -->
  <symbol id="icon-light" viewBox="0 0 24 24">
    <line x1="12" y1="1" x2="12" y2="3" stroke="currentColor" stroke-width="2" stroke-linecap="round"/>
    <line x1="12" y1="21" x2="12" y2="23" stroke="currentColor" stroke-width="2" stroke-linecap="round"/>
    <line x1="4.22" y1="4.22" x2="5.64" y2="5.64" stroke="currentColor" stroke-width="2" stroke-linecap="round"/>
    <line x1="18.36" y1="18.36" x2="19.78" y2="19.78" stroke="currentColor" stroke-width="2" stroke-linecap="round"/>
    <line x1="1" y1="12" x2="3" y2="12" stroke="currentColor" stroke-width="2" stroke-linecap="round"/>
    <line x1="21" y1="12" x2="23" y2="12" stroke="currentColor" stroke-width="2" stroke-linecap="round"/>
    <line x1="4.22" y1="19.78" x2="5.64" y2="18.36" stroke="currentColor" stroke-width="2" stroke-linecap="round"/>
    <line x1="18.36" y1="5.64" x2="19.78" y2="4.22" stroke="currentColor" stroke-width="2" stroke-linecap="round"/>
    <circle cx="12" cy="12" r="5" stroke="currentColor" stroke-width="2" fill="none"/>
  </symbol>

  <symbol id="icon-dimmer" viewBox="0 0 24 24">
    <circle cx="12" cy="12" r="4" stroke="currentColor" stroke-width="2" fill="none"/>
    <path d="M12 2v2M12 20v2M4.93 4.93l1.41 1.41M17.66 17.66l1.41 1.41M2 12h2M20 12h2M4.93 19.07l1.41-1.41M17.66 6.34l1.41-1.41" stroke="currentColor" stroke-width="1.5" stroke-linecap="round"/>
  </symbol>

  <symbol id="icon-blind" viewBox="0 0 24 24">
    <line x1="3" y1="3" x2="21" y2="3" stroke="currentColor" stroke-width="2" stroke-linecap="round"/>
    <line x1="3" y1="8" x2="21" y2="8" stroke="currentColor" stroke-width="2" stroke-linecap="round"/>
    <line x1="3" y1="13" x2="21" y2="13" stroke="currentColor" stroke-width="2" stroke-linecap="round"/>
    <line x1="12" y1="13" x2="12" y2="21" stroke="currentColor" stroke-width="2" stroke-linecap="round"/>
    <path d="M9 18l3 3 3-3" stroke="currentColor" stroke-width="2" stroke-linecap="round" stroke-linejoin="round" fill="none"/>
  </symbol>

  <symbol id="icon-thermo" viewBox="0 0 24 24">
    <path d="M14 14.76V3.5a2.5 2.5 0 00-5 0v11.26a4.5 4.5 0 105 0z" stroke="currentColor" stroke-width="2" stroke-linecap="round" stroke-linejoin="round" fill="none"/>
  </symbol>

  <symbol id="icon-scene" viewBox="0 0 24 24">
    <polygon points="12 2 15.09 8.26 22 9.27 17 14.14 18.18 21.02 12 17.77 5.82 21.02 7 14.14 2 9.27 8.91 8.26 12 2" stroke="currentColor" stroke-width="2" stroke-linecap="round" stroke-linejoin="round" fill="none"/>
  </symbol>

  <symbol id="icon-rgb" viewBox="0 0 24 24">
    <circle cx="12" cy="12" r="9" stroke="currentColor" stroke-width="2" fill="none"/>
    <path d="M12 3a9 9 0 000 18" fill="currentColor" opacity="0.3"/>
    <circle cx="8" cy="10" r="2" fill="currentColor" opacity="0.8"/>
    <circle cx="16" cy="10" r="2" fill="currentColor" opacity="0.5"/>
    <circle cx="12" cy="16" r="2" fill="currentColor" opacity="0.6"/>
  </symbol>

  <symbol id="icon-sensor" viewBox="0 0 24 24">
    <path d="M22 12h-4l-3 9L9 3l-3 9H2" stroke="currentColor" stroke-width="2" stroke-linecap="round" stroke-linejoin="round" fill="none"/>
  </symbol>

  <symbol id="icon-camera" viewBox="0 0 24 24">
    <path d="M23 19a2 2 0 01-2 2H3a2 2 0 01-2-2V8a2 2 0 012-2h4l2-3h6l2 3h4a2 2 0 012 2z" stroke="currentColor" stroke-width="2" stroke-linecap="round" stroke-linejoin="round" fill="none"/>
    <circle cx="12" cy="13" r="4" stroke="currentColor" stroke-width="2" fill="none"/>
  </symbol>

  <symbol id="icon-button" viewBox="0 0 24 24">
    <rect x="3" y="6" width="18" height="12" rx="6" stroke="currentColor" stroke-width="2" fill="none"/>
    <circle cx="9" cy="12" r="2" fill="currentColor"/>
  </symbol>

  <symbol id="icon-music" viewBox="0 0 24 24">
    <path d="M9 18V5l12-2v13" stroke="currentColor" stroke-width="2" stroke-linecap="round" stroke-linejoin="round" fill="none"/>
    <circle cx="6" cy="18" r="3" stroke="currentColor" stroke-width="2" fill="none"/>
    <circle cx="18" cy="16" r="3" stroke="currentColor" stroke-width="2" fill="none"/>
  </symbol>

  <symbol id="icon-fan" viewBox="0 0 24 24">
    <path d="M12 12c0-2 2.5-3.5 2.5-6a2.5 2.5 0 00-5 0c0 2.5 2.5 4 2.5 6z" fill="currentColor" opacity="0.7"/>
    <path d="M12 12c2 0 3.5 2.5 6 2.5a2.5 2.5 0 000-5c-2.5 0-4 2.5-6 2.5z" fill="currentColor" opacity="0.7"/>
    <path d="M12 12c0 2-2.5 3.5-2.5 6a2.5 2.5 0 005 0c0-2.5-2.5-4-2.5-6z" fill="currentColor" opacity="0.7"/>
    <path d="M12 12c-2 0-3.5-2.5-6-2.5a2.5 2.5 0 000 5c2.5 0 4-2.5 6-2.5z" fill="currentColor" opacity="0.7"/>
    <circle cx="12" cy="12" r="2" fill="currentColor"/>
  </symbol>

  <symbol id="icon-power" viewBox="0 0 24 24">
    <line x1="12" y1="2" x2="12" y2="12" stroke="currentColor" stroke-width="2" stroke-linecap="round"/>
    <path d="M6.48 5.48a9 9 0 1011.04 0" stroke="currentColor" stroke-width="2" stroke-linecap="round" fill="none"/>
  </symbol>

  <symbol id="icon-door" viewBox="0 0 24 24">
    <path d="M3 21h18M5 21V5a2 2 0 012-2h10a2 2 0 012 2v16" stroke="currentColor" stroke-width="2" stroke-linecap="round" stroke-linejoin="round" fill="none"/>
    <circle cx="15" cy="12" r="1" fill="currentColor"/>
  </symbol>

  <symbol id="icon-window" viewBox="0 0 24 24">
    <rect x="3" y="3" width="18" height="18" rx="2" stroke="currentColor" stroke-width="2" fill="none"/>
    <line x1="12" y1="3" x2="12" y2="21" stroke="currentColor" stroke-width="2"/>
    <line x1="3" y1="12" x2="21" y2="12" stroke="currentColor" stroke-width="2"/>
  </symbol>

  <symbol id="icon-bell" viewBox="0 0 24 24">
    <path d="M18 8a6 6 0 00-12 0c0 7-3 9-3 9h18s-3-2-3-9" stroke="currentColor" stroke-width="2" stroke-linecap="round" stroke-linejoin="round" fill="none"/>
    <path d="M13.73 21a2 2 0 01-3.46 0" stroke="currentColor" stroke-width="2" stroke-linecap="round" stroke-linejoin="round" fill="none"/>
  </symbol>

  <symbol id="icon-plug" viewBox="0 0 24 24">
    <path d="M19 6.41L17.59 5 12 10.59 6.41 5 5 6.41 10.59 12 5 17.59 6.41 19 12 13.41 17.59 19 19 17.59 13.41 12 19 6.41z" fill="none"/>
    <path d="M7 2v4M17 2v4M7 6h10a2 2 0 012 2v2a5 5 0 01-5 5h-4a5 5 0 01-5-5V8a2 2 0 012-2z" stroke="currentColor" stroke-width="2" stroke-linecap="round" stroke-linejoin="round" fill="none"/>
    <line x1="12" y1="15" x2="12" y2="22" stroke="currentColor" stroke-width="2" stroke-linecap="round"/>
  </symbol>

  <symbol id="icon-star" viewBox="0 0 24 24">
    <polygon points="12 2 15.09 8.26 22 9.27 17 14.14 18.18 21.02 12 17.77 5.82 21.02 7 14.14 2 9.27 8.91 8.26 12 2" stroke="currentColor" stroke-width="2" stroke-linecap="round" stroke-linejoin="round" fill="currentColor"/>
  </symbol>

  <symbol id="icon-up" viewBox="0 0 24 24">
    <polyline points="18 15 12 9 6 15" stroke="currentColor" stroke-width="2" stroke-linecap="round" stroke-linejoin="round" fill="none"/>
  </symbol>

  <symbol id="icon-down" viewBox="0 0 24 24">
    <polyline points="6 9 12 15 18 9" stroke="currentColor" stroke-width="2" stroke-linecap="round" stroke-linejoin="round" fill="none"/>
  </symbol>

  <symbol id="icon-left" viewBox="0 0 24 24">
    <polyline points="15 18 9 12 15 6" stroke="currentColor" stroke-width="2" stroke-linecap="round" stroke-linejoin="round" fill="none"/>
  </symbol>

  <symbol id="icon-right" viewBox="0 0 24 24">
    <polyline points="9 18 15 12 9 6" stroke="currentColor" stroke-width="2" stroke-linecap="round" stroke-linejoin="round" fill="none"/>
  </symbol>

  <symbol id="icon-sun" viewBox="0 0 24 24">
    <circle cx="12" cy="12" r="4" stroke="currentColor" stroke-width="2" fill="none"/>
    <path d="M12 2v2M12 20v2M4.93 4.93l1.41 1.41M17.66 17.66l1.41 1.41M2 12h2M20 12h2M4.93 19.07l1.41-1.41M17.66 6.34l1.41-1.41" stroke="currentColor" stroke-width="2" stroke-linecap="round"/>
  </symbol>

  <symbol id="icon-moon" viewBox="0 0 24 24">
    <path d="M21 12.79A9 9 0 1111.21 3 7 7 0 0021 12.79z" stroke="currentColor" stroke-width="2" stroke-linecap="round" stroke-linejoin="round" fill="none"/>
  </symbol>

  <symbol id="icon-cloud" viewBox="0 0 24 24">
    <path d="M18 10h-1.26A8 8 0 109 20h9a5 5 0 000-10z" stroke="currentColor" stroke-width="2" stroke-linecap="round" stroke-linejoin="round" fill="none"/>
  </symbol>

  <symbol id="icon-fire" viewBox="0 0 24 24">
    <path d="M8.5 14.5A2.5 2.5 0 0011 12c0-1.38-.5-2-1-3-1.072-2.143-.224-4.054 2-6 .5 2.5 2 4.9 4 6.5 2 1.6 3 3.5 3 5.5a7 7 0 01-7 7 7 7 0 01-5-2.92c0-1.08.3-2.08.8-3.08" stroke="currentColor" stroke-width="2" stroke-linecap="round" stroke-linejoin="round" fill="none"/>
  </symbol>

  <symbol id="icon-drop" viewBox="0 0 24 24">
    <path d="M12 2.69l5.66 5.66a8 8 0 11-11.31 0z" stroke="currentColor" stroke-width="2" stroke-linecap="round" stroke-linejoin="round" fill="none"/>
  </symbol>

  <symbol id="icon-leaf" viewBox="0 0 24 24">
    <path d="M17 8C8 10 5.9 16.17 3.82 19.27a2 2 0 002.92.69c3.16-2.12 9.5-6.5 12.26-11.96z" stroke="currentColor" stroke-width="2" stroke-linecap="round" stroke-linejoin="round" fill="none"/>
    <path d="M3 21c2-3 4-5 5-7" stroke="currentColor" stroke-width="2" stroke-linecap="round"/>
  </symbol>

  <symbol id="icon-wifi" viewBox="0 0 24 24">
    <path d="M5 12.55a11 11 0 0114.08 0" stroke="currentColor" stroke-width="2" stroke-linecap="round" stroke-linejoin="round" fill="none"/>
    <path d="M1.42 9a16 16 0 0121.16 0" stroke="currentColor" stroke-width="2" stroke-linecap="round" stroke-linejoin="round" fill="none"/>
    <path d="M8.53 16.11a6 6 0 016.95 0" stroke="currentColor" stroke-width="2" stroke-linecap="round" stroke-linejoin="round" fill="none"/>
    <circle cx="12" cy="20" r="1" fill="currentColor"/>
  </symbol>

</svg>
